PathFileType	4	(X/Y/Z)	Patient4_TMGait_0pt7_02_right_35.trc.trc
DataRate	CameraRate	NumFrames	NumMarkers	Units	OrigDataRate	OrigDataStartFrame	OrigNumFrames
88.050314465409	88.050314465409	4	33	mm	88.050314465409	71	       141
Frame#	Time	Sacral			L.Shoulder			Chest			R.Shoulder			Neck			R.ASIS			L.ASIS			R.Thigh.Superior			R.Thigh.Lateral			R.Thigh.Inferior			R.Patella			L.Thigh.Superior			L.Thigh.Lateral			L.Thigh.Inferior			L.Patella			L.Shank.Superior			L.Shank.Lateral			L.Shank.Inferior			R.Shank.Superior			R.Shank.Lateral			R.Shank.Inferior			R.Heel			R.Midfoot.Superior			R.Midfoot.Lateral			R.Toe			L.Heel			L.Midfoot.Lateral			L.Midfoot.Superior			L.Toe			L.Elbow			L.Wrist			R.Elbow			R.Wrist			
		X1	Y1	Z1	X2	Y2	Z2	X3	Y3	Z3	X4	Y4	Z4	X5	Y5	Z5	X6	Y6	Z6	X7	Y7	Z7	X8	Y8	Z8	X9	Y9	Z9	X10	Y10	Z10	X11	Y11	Z11	X12	Y12	Z12	X13	Y13	Z13	X14	Y14	Z14	X15	Y15	Z15	X16	Y16	Z16	X17	Y17	Z17	X18	Y18	Z18	X19	Y19	Z19	X20	Y20	Z20	X21	Y21	Z21	X22	Y22	Z22	X23	Y23	Z23	X24	Y24	Z24	X25	Y25	Z25	X26	Y26	Z26	X27	Y27	Z27	X28	Y28	Z28	X29	Y29	Z29	X30	Y30	Z30	X31	Y31	Z31	X32	Y32	Z32	X33	Y33	Z33	

71	40.295000000000	804.599184568148	1013.824998488061	502.396446376676	1004.146395361015	1414.597475754860	295.009271258767	1118.044255993823	1336.644578352318	445.415006634424	1065.720414068719	1427.790666836522	621.039025472619	1029.613072400283	1477.343901217422	446.625604038985	1025.410190933060	931.063827444784	614.762440728029	1006.907241873651	937.835531507769	339.254984704016	1013.144333073282	719.029496981466	593.717381107399	903.467276627040	632.768348959833	655.945334998015	961.019581877394	562.493576526137	577.746812379117	943.115402620997	479.964319356288	582.813973155552	1077.326130005461	767.934468790752	383.188252711472	1040.893365628713	641.111200536485	295.651502420171	1140.731273702139	584.351128810323	366.003959338300	1167.846758914181	515.981797690803	361.903094111927	1148.375549492958	441.799608503609	347.349070436964	1079.382881585464	316.081019266681	290.150936831156	1158.839860083118	212.311729585561	347.791661814347	904.464071592459	398.736874028975	589.644005220791	825.172210694516	302.458450800773	653.478976389536	856.407219996651	203.998646178959	588.099900019941	710.412011372403	43.173817878756	559.897021931280	882.323041228699	96.018381253359	594.161997385026	794.363497352472	36.619893158460	633.378514852255	1002.873695051018	41.208415815873	620.147677148283	1066.340671205591	37.860204381594	375.546271341825	1144.840923388543	42.427578574026	299.780958675069	1217.044637371790	114.478066388902	328.931182868174	1351.146579080548	79.355957771329	309.157304874173	814.262164994195	1114.535733020736	223.132871545665	741.516328067765	865.413127541475	264.183991470716	1213.041448001498	1128.376531159540	722.957364715921	1395.616500984528	1252.407372025256	608.804328543288	
72	40.306357142857	805.506528652719	1011.878252096004	499.433275203062	1003.467843028795	1413.661370786188	292.652962177100	1117.311892837250	1336.527503806723	443.507800186119	1063.428599076012	1427.284744924969	618.776473172993	1027.764716101534	1476.504890693544	444.395401625456	1026.237289666741	929.993033326561	612.809027294578	1008.916859288391	936.338820118350	337.647512221935	1013.655567383913	717.592506630942	592.018763463924	903.221172911738	631.644806415536	654.068965417707	960.418781451886	561.027338857173	576.043664122848	941.760346118593	477.866848716333	580.969484517774	1078.288099209453	764.251865939561	381.286295503377	1038.824915279524	638.032722974577	294.513365075698	1138.333470684827	580.399858773553	364.595744997851	1163.618864634213	511.846995092515	360.985793529046	1144.617900952997	438.005291000067	346.180587595696	1075.326657872644	312.106418960237	290.162680510669	1155.155728513545	208.742423979903	347.880360949035	901.863617949935	397.031140805991	588.076547410579	821.146285699265	302.110173210818	652.420703513554	850.423898302875	203.072807204256	587.332443657837	702.410029842759	43.328707116417	559.954269919299	874.375339958190	95.924628536722	593.936933444366	786.402360820223	36.650612741062	633.421674510226	994.932310780367	40.991228937405	620.192375621111	1061.651030482391	36.499400985212	377.268985251489	1139.546217069706	39.549651928166	300.725051137356	1213.193137742413	109.913361385090	329.414799344317	1346.585151565274	72.129272203698	308.677630008858	813.154281567940	1114.431693495228	220.773337978248	740.160239804971	865.400493159654	262.986537060901	1217.997276396515	1131.354917116055	717.020919845967	1393.905591956793	1263.818646209514	602.616493135207	
73	40.317714285714	806.269164753810	1010.108755759374	496.548462854263	1002.821305075915	1412.802748477102	290.154262798132	1116.631560983166	1336.512262918873	441.455647564415	1061.271231933223	1426.949977608331	616.392728225513	1026.071525211615	1475.804081469075	441.946336656217	1027.012804972586	929.008331759768	610.679890235316	1010.650312567493	935.174206197425	335.878186210475	1014.627102701642	716.284998611110	590.094608367030	903.731305778799	630.401071429607	651.961157011965	960.777861980284	559.543323885062	574.076939410787	941.411840712796	475.583396071051	578.858389502665	1079.579920740631	761.611262061475	379.087311607580	1037.351787407633	635.868802431753	293.315959585273	1136.786782493451	577.574043885228	362.835248109757	1160.303429195929	508.656214450916	359.879186530732	1141.569574685672	434.936871905551	345.054995579894	1071.646669007464	309.233007779469	289.680075646829	1150.875220060795	205.830654747231	347.860412196342	900.119685117861	395.151697518321	586.276034400426	817.781918051690	301.831842396567	651.198820406146	844.827023207267	202.177620237167	586.471095420525	694.453234798933	43.826421119311	560.042828335125	866.588508838661	95.900029591178	593.715731735719	778.506392742210	36.831328852044	633.446198836338	987.046492707786	40.720476569207	620.233562418489	1055.362823083560	35.987657461327	378.550515596748	1132.788224444120	37.437988607079	301.353479349859	1208.003578596612	105.980598628859	329.774837463067	1340.649077856645	65.292534918593	308.253592020405	812.929860812329	1113.706815390920	218.238612371441	739.923201682415	864.697763357315	261.281949463839	1222.056955025375	1134.206322126525	711.579479192081	1391.614420744411	1273.906112681663	596.841652361564	
74	40.329071428571	806.874679989731	1008.601170684230	493.777736671367	1002.203029345107	1412.089574519450	287.555015684047	1116.001616653095	1336.621170865726	439.274913393544	1059.336375336239	1426.834400626903	613.910443482732	1024.572681290045	1475.303732849075	439.324823614198	1027.681926692086	928.184792968721	608.372571174755	1012.058495967541	934.409322731968	333.889380348012	1015.970280275281	715.185931811972	587.927719668899	904.972894278049	629.092851637011	649.649867718539	962.100889589030	558.104671818452	571.884821187918	942.121495760686	473.158397556647	576.597990369652	1081.141120486524	760.101212643761	376.569335412706	1036.468965139054	634.628136309347	292.024199952460	1135.993848641011	575.826489583038	360.738833911265	1157.873346238745	506.428367243665	358.602243863420	1139.222263139701	432.618185703016	344.000914973416	1068.475058042074	307.415827009568	288.669579421428	1146.199559752580	203.589081651961	347.740662213022	899.241325365696	393.171244342530	584.332694475235	815.065962034507	301.721373484817	649.850007010466	839.653080490358	201.412715393684	585.568530983897	686.574467156606	44.825887400906	560.163850560682	859.024244359095	95.965161121300	593.516790579363	770.696708329062	37.248990518541	633.456239124986	979.224563603988	40.397489276492	620.267449766018	1047.943751799560	36.075054797526	379.349677642606	1125.053322978857	36.023643521160	301.661297240388	1201.776217856978	102.817399153105	330.006763499010	1333.720797972319	59.336184214431	307.919885369806	813.621779416463	1112.395875250801	215.534743146035	740.866563555709	863.324882309039	259.051700318593	1225.182370453068	1136.823028930978	706.713291534709	1388.828437967493	1282.619263518462	591.516503864497	
